<?xml version="1.0" encoding="UTF-8"?>
<svg id="Layer_1" data-name="Layer 1" xmlns="http://www.w3.org/2000/svg" viewBox="0 0 200 200">
  <defs>
    <style>
      .cls-1 {
        fill: #b21823;
      }

      .cls-2 {
        fill: #fff;
      }
    </style>
  </defs>
  <path class="cls-1" d="M99.8,195c-19.37,0-38.23-5.93-54.41-17.29-20.76-14.59-34.59-36.38-38.95-61.37-4.36-24.99,1.27-50.18,15.85-70.94C36.88,24.64,58.67,10.8,83.67,6.44c24.99-4.36,50.19,1.27,70.94,15.85,20.76,14.59,34.59,36.38,38.95,61.37,4.36,24.99-1.27,50.19-15.85,70.94-14.59,20.76-36.38,34.59-61.37,38.95-5.52.96-11.05,1.44-16.54,1.44Z"/>
  <path class="cls-2" d="M130.78,83.26l-.05-.24-10.01-34.31c2.28-1.99,3.65-4.89,3.65-8.05,0-5.89-4.79-10.69-10.69-10.69h-27.4c-5.89,0-10.69,4.8-10.69,10.69,0,3.16,1.36,6.06,3.65,8.05l-9.94,34.06-.12.46h0c-2.11,9.08-1.92,16.26-1.77,22.03v.4s.01,40.57.01,40.57c0,13.11,10.67,23.78,23.78,23.78h17.57c13.12,0,23.79-10.67,23.79-23.78v-39.13c.01-.54.03-1.11.05-1.72v-.11c.17-5.27.4-12.48-1.81-22.02ZM86.93,49.36l.04-.15c.05-.22.13-.45.23-.69l1.45-3.53-3.54-1.42c-1.19-.48-1.96-1.61-1.96-2.89,0-1.72,1.4-3.11,3.11-3.11h27.4c1.72,0,3.11,1.4,3.11,3.11,0,1.28-.77,2.41-1.95,2.89l-3.55,1.43,1.46,3.54c.1.23.17.46.23.68l.02.08,9.95,34.08c-1.51.04-5.48.39-10.18,2.74-7.86,3.94-15.59,8.91-24.42,10.48-5.13.91-10.9-.34-11.45-.46-.05-.01-.95-.26-1.86-.51.19-3.22.62-6.77,1.52-10.65l10.39-35.6Z"/>
</svg>