<?xml version="1.0" encoding="UTF-8"?>
<svg id="Layer_1" data-name="Layer 1" xmlns="http://www.w3.org/2000/svg" viewBox="0 0 200 200">
  <defs>
    <style>
      .cls-1 {
        fill: #fff;
      }

      .cls-2 {
        fill: #c1a814;
      }
    </style>
  </defs>
  <path class="cls-2" d="M99.8,195c-19.37,0-38.23-5.93-54.4-17.29-20.76-14.59-34.59-36.38-38.95-61.37-4.36-24.99,1.27-50.19,15.85-70.94C36.88,24.64,58.67,10.8,83.67,6.44c24.99-4.36,50.19,1.27,70.94,15.85,20.76,14.59,34.59,36.38,38.95,61.37,4.36,24.99-1.27,50.19-15.85,70.94-14.59,20.76-36.38,34.59-61.37,38.95-5.52.96-11.05,1.44-16.54,1.44Z"/>
  <path class="cls-1" d="M143.6,104.47c-.11-2.23-.22-4.53-.48-6.76-.76-6.54-2.14-12.76-4.11-18.48-2.08-6.05-4.89-11.75-8.35-16.96-4.55-6.85-9.71-11.88-15.76-15.38-3.19-1.84-6.43-3.09-9.65-3.73-1.72-.34-3.47-.51-5.23-.51s-3.39.16-5.09.48c-5.7,1.07-10.92,3.69-15.97,8.02-7.57,6.5-13.32,15.21-17.57,26.63-2.48,6.67-4.1,13.94-4.82,21.63-.77,8.2-.26,15.36,1.55,21.88,1.74,6.26,4.31,11.88,7.64,16.7,3.48,5.03,7.89,9.34,13.1,12.79,9.58,6.35,19.83,8.12,30.44,5.26,5.88-1.58,11.2-4.34,15.81-8.19,4.27-3.57,8.09-8.22,11.36-13.81,2.32-3.97,4.1-8.25,5.31-12.75,1.16-4.29,1.82-8.9,1.97-13.7-.06-1.04-.12-2.09-.16-3.11ZM99,141.58c-.24,0-.48-.03-.7-.09-1.34-.2-6.86-1.23-12.53-5.25-3.75-2.65-6.8-6.07-9.08-10.15-2.8-5.01-4.42-11.03-4.8-17.87-.09-1.55,1.1-2.88,2.65-2.97,1.55-.09,2.88,1.1,2.97,2.65.33,5.91,1.68,11.06,4.01,15.29,1.84,3.33,4.29,6.13,7.3,8.3,5.21,3.77,10.41,4.44,10.41,4.44h0c1.45.12,2.59,1.35,2.59,2.83,0,1.55-1.26,2.81-2.81,2.81Z"/>
</svg>