<?xml version="1.0" encoding="UTF-8"?>
<svg id="Layer_1" data-name="Layer 1" xmlns="http://www.w3.org/2000/svg" viewBox="0 0 200 200">
  <defs>
    <style>
      .cls-1 {
        fill: #0071bc;
      }

      .cls-2 {
        fill: #fff;
      }
    </style>
  </defs>
  <path class="cls-1" d="M99.8,195c-19.37,0-38.23-5.93-54.4-17.29-20.76-14.59-34.59-36.38-38.95-61.37-4.36-24.99,1.27-50.19,15.85-70.94C36.88,24.64,58.67,10.8,83.67,6.44c24.99-4.36,50.19,1.27,70.94,15.85,20.76,14.59,34.59,36.38,38.95,61.37,4.36,24.99-1.27,50.18-15.85,70.94-14.59,20.76-36.38,34.59-61.37,38.95-5.52.96-11.05,1.44-16.54,1.44Z"/>
  <path class="cls-2" d="M169.61,99.41c-12.9-18.91-34.46-31.3-58.88-31.3-22.76,0-43.03,10.76-56.12,27.54-.42.54-1.25.53-1.66-.03-5.98-8-13.09-15.07-21.09-21-.8-.59-1.9.18-1.62,1.14,2.31,7.88,7.71,15.98,7.71,24.24s-5.4,16.35-7.7,24.23c-.28.96.81,1.74,1.62,1.14,8-5.92,15.12-13,21.09-21,.41-.55,1.23-.57,1.66-.03,13.09,16.77,33.36,27.54,56.12,27.54,24.42,0,45.98-12.39,58.88-31.3.24-.35.24-.82,0-1.18ZM142.4,98.91c-3.05,0-5.52-2.47-5.52-5.52s2.47-5.52,5.52-5.52,5.52,2.47,5.52,5.52-2.47,5.52-5.52,5.52Z"/>
</svg>