<?xml version="1.0" encoding="UTF-8"?>
<svg id="Layer_1" data-name="Layer 1" xmlns="http://www.w3.org/2000/svg" viewBox="0 0 200 200">
  <defs>
    <style>
      .cls-1 {
        fill: #af612c;
      }

      .cls-2 {
        fill: #fff;
      }
    </style>
  </defs>
  <path class="cls-1" d="M99.8,195c-19.37,0-38.23-5.93-54.4-17.29-20.76-14.59-34.59-36.38-38.95-61.37-4.36-24.99,1.27-50.18,15.85-70.94C36.88,24.64,58.67,10.8,83.67,6.44c24.99-4.36,50.18,1.27,70.94,15.85,20.76,14.59,34.59,36.38,38.95,61.37,4.36,24.99-1.27,50.18-15.85,70.94-14.59,20.76-36.38,34.59-61.37,38.95-5.52.96-11.05,1.44-16.54,1.44Z"/>
  <path class="cls-2" d="M136.34,86.59c-17.94,0-32.74,13.44-34.88,30.81v-25.71c19.29-.15,34.88-15.83,34.88-35.15-17.94,0-32.74,13.44-34.88,30.8v-9.77c12.25-13.81,11.77-34.94-1.46-48.16-13.22,13.22-13.7,34.36-1.46,48.16v9.77c-2.14-17.36-16.94-30.81-34.88-30.81,0,19.32,15.59,35,34.88,35.15v25.71c-2.14-17.36-16.94-30.81-34.88-30.81,0,19.33,15.59,35,34.88,35.15v25.71c-2.14-17.36-16.94-30.81-34.88-30.81h0c0,19.32,15.59,35,34.88,35.15v16.24c0,1.61.66,2.56,1.46,2.56s1.46-.95,1.46-2.56v-16.24c19.29-.15,34.88-15.83,34.88-35.15h0c-17.94,0-32.74,13.44-34.88,30.81v-25.71c19.29-.15,34.88-15.83,34.88-35.15Z"/>
</svg>