<?xml version="1.0" encoding="UTF-8"?>
<svg id="Layer_1" data-name="Layer 1" xmlns="http://www.w3.org/2000/svg" viewBox="0 0 200 200">
  <defs>
    <style>
      .cls-1 {
        fill: #662d91;
      }

      .cls-2 {
        fill: #fff;
      }
    </style>
  </defs>
  <path class="cls-1" d="M99.8,195c-19.37,0-38.23-5.93-54.41-17.29-20.76-14.59-34.59-36.38-38.95-61.37-4.36-24.99,1.27-50.18,15.85-70.94C36.88,24.64,58.67,10.8,83.67,6.44c24.99-4.36,50.19,1.27,70.94,15.85,20.76,14.59,34.59,36.38,38.95,61.37,4.36,24.99-1.27,50.19-15.85,70.94-14.59,20.76-36.38,34.59-61.37,38.95-5.52.96-11.05,1.44-16.54,1.44Z"/>
  <path class="cls-2" d="M100,38.87l-57.81,100.13h115.62l-57.81-100.13ZM104.88,126.55h-9.33v-9.04h9.33v9.04ZM109.26,104.52l-2.22,1.72c-1.21.94-2.01,2.03-2.41,3.29-.25.79-.39,2.02-.41,3.69h-8.45c.13-3.53.46-5.96,1-7.31.54-1.35,1.94-2.89,4.19-4.65l2.28-1.78c.75-.56,1.36-1.18,1.82-1.85.83-1.15,1.25-2.41,1.25-3.79,0-1.59-.46-3.03-1.39-4.33-.93-1.3-2.62-1.96-5.09-1.96s-4.14.8-5.15,2.41c-1.01,1.61-1.52,3.28-1.52,5.01h-9.04c.25-5.95,2.33-10.16,6.23-12.64,2.46-1.59,5.49-2.38,9.08-2.38,4.71,0,8.63,1.13,11.75,3.38,3.12,2.25,4.68,5.59,4.68,10.01,0,2.71-.68,5-2.03,6.85-.79,1.13-2.32,2.57-4.57,4.32Z"/>
</svg>