<?xml version="1.0" encoding="UTF-8"?>
<svg id="Layer_1" data-name="Layer 1" xmlns="http://www.w3.org/2000/svg" viewBox="0 0 200 200">
  <defs>
    <style>
      .cls-1 {
        fill: #fff;
      }

      .cls-2 {
        fill: #99762e;
      }
    </style>
  </defs>
  <path class="cls-2" d="M99.8,195c-19.37,0-38.23-5.93-54.4-17.29-20.76-14.59-34.59-36.38-38.95-61.37-4.36-24.99,1.27-50.19,15.85-70.94C36.88,24.64,58.67,10.8,83.67,6.44c24.99-4.36,50.19,1.27,70.94,15.85,20.76,14.59,34.59,36.38,38.95,61.37,4.36,24.99-1.27,50.18-15.85,70.94-14.59,20.76-36.38,34.59-61.37,38.95-5.52.96-11.05,1.44-16.54,1.44Z"/>
  <path class="cls-1" d="M139.89,45.04c-13.25-9.6-31.77-6.64-41.37,6.61-.24.33-1.74,2.84-4.28,8.49-2.57,5.73-6.83,13.05-10.45,17.42-3.69,4.45-13.2,10.3-18.27,13.25-1.13.57-2.24,1.19-3.31,1.87h0c-3.9,2.48-7.4,5.72-10.27,9.68-12.18,16.81-8.43,40.32,8.39,52.51,16.82,12.18,40.32,8.43,52.51-8.39,2.85-3.93,4.82-8.23,5.97-12.66h0s0,0,0,0c.26-1.01.48-2.04.65-3.06,1.17-5,4.01-15.05,9.07-22.05,5.38-7.43,12.72-16.07,15.81-19.65.36-.39,1.44-1.7,1.44-1.7.25-.31.49-.63.73-.96,9.6-13.25,6.64-31.77-6.61-41.37ZM68.08,127.98c-.92,4.64-4.26,7.89-7.47,7.26-3.21-.63-5.06-4.91-4.14-9.56.92-4.64,4.26-7.9,7.47-7.26,3.21.63,5.06,4.91,4.14,9.56ZM71.58,114.84c-1.91-.38-3.02-2.93-2.47-5.7.55-2.77,2.54-4.71,4.45-4.33,1.91.38,3.02,2.93,2.47,5.7-.55,2.77-2.54,4.71-4.45,4.33ZM80.82,125.04c-.61,3.06-2.81,5.2-4.92,4.78-2.11-.42-3.33-3.23-2.73-6.29.6-3.06,2.81-5.2,4.92-4.78,2.11.42,3.33,3.24,2.73,6.29Z"/>
</svg>