<?xml version="1.0" encoding="UTF-8"?>
<svg id="Layer_1" data-name="Layer 1" xmlns="http://www.w3.org/2000/svg" viewBox="0 0 200 200">
  <defs>
    <style>
      .cls-1 {
        fill: #fff;
      }

      .cls-2 {
        fill: #bc008b;
      }
    </style>
  </defs>
  <path class="cls-2" d="M99.8,195c-19.37,0-38.23-5.93-54.4-17.29-20.76-14.59-34.59-36.38-38.95-61.37-4.36-24.99,1.27-50.19,15.85-70.94C36.88,24.64,58.67,10.8,83.67,6.44c24.99-4.36,50.19,1.27,70.94,15.85,20.76,14.59,34.59,36.38,38.95,61.37,4.36,24.99-1.27,50.18-15.85,70.94-14.59,20.76-36.38,34.59-61.37,38.95-5.52.96-11.05,1.44-16.54,1.44Z"/>
  <path class="cls-1" d="M169.61,66.48c-.7-.61-1.77-.52-2.37.18-1.03,1.2-2.3,1.62-3.36,1.73.23-1.94-.47-4.09-1.98-6.02-1.45-1.85-3.8-2.47-5.59-1.48-1.34.74-2.55,2.59-1.55,5.39.62,1.74,1.97,3.24,3.73,4.23-.38.21-.81.39-1.3.57-.47.17-.93.28-1.39.38-5.18-6.71-13.3-11.03-22.43-11.03l-58.04,3.33c-5.67,0-11.88,3.66-17.81,8.44-1.71-1.77-4.11-3.36-7.52-4.44,0,0-.78,3-.65,6.42-1.05-.76-2.35-1.43-3.96-1.94,0,0-1.71,6.56,1.32,9.87-5.84,5.83-9.49,11.06-12.07,12.14l-4.26-1.17-.57,6.92s6.14,10.38,28.83,10.4h0c2.08.1,4.17.15,6.24.17,0,0-.94,18.02-2.33,23.85-.32,1.35-2,5.17-2,5.17h7.67l8.75-20.04s-.61,11.24-1.48,14.88c-.32,1.35-2,5.17-2,5.17h7.67l11.5-26.34c15.35,5.61,25.1,4.59,35.67,2.82,0,0,2.6,10.58,2.52,13.12-.11,3.71-4.76,10.4-4.76,10.4h9.5s3.2-15.18,3.33-20.33c.03-1.36-.6-5.39-.6-5.39,1.32-.37,2.04-.62,2.04-.62,0,0,3.52,12.09,3.42,15.37-.11,3.7-4.76,10.97-4.76,10.97h9.5s1.69-10.82,2.36-14.41c1.25-6.67.06-14.08.06-14.08,7.51-3.51,10.74-11.2,10.74-22.35,0-5.24-1.43-10.14-3.91-14.35.17-.05.35-.1.52-.16,1.92-.68,3.18-1.59,4.02-2.51,2.89.29,5.63-.75,7.45-2.88.61-.71.52-1.77-.18-2.37ZM53.79,89.62c-1.87,0-3.39-1.52-3.39-3.39s1.52-3.39,3.39-3.39,3.39,1.52,3.39,3.39-1.51,3.39-3.39,3.39ZM157.93,65.14c-.26-.72-.19-1.21,0-1.32.08-.04.19-.06.33-.04.28.03.65.22.99.65.89,1.14,1.35,2.35,1.3,3.36-1.26-.59-2.24-1.56-2.63-2.65Z"/>
</svg>