<?xml version="1.0" encoding="UTF-8"?>
<svg id="Layer_1" data-name="Layer 1" xmlns="http://www.w3.org/2000/svg" viewBox="0 0 200 200">
  <defs>
    <style>
      .cls-1 {
        fill: #fff;
      }

      .cls-2 {
        fill: #b29c60;
      }
    </style>
  </defs>
  <path class="cls-2" d="M99.8,195c-19.37,0-38.23-5.93-54.4-17.29-20.76-14.59-34.59-36.38-38.95-61.37-4.36-24.99,1.27-50.19,15.85-70.94C36.88,24.64,58.67,10.8,83.67,6.44c24.99-4.36,50.18,1.27,70.94,15.85,20.76,14.59,34.59,36.38,38.95,61.37,4.36,24.99-1.27,50.19-15.85,70.94-14.59,20.76-36.38,34.59-61.37,38.95-5.52.96-11.05,1.44-16.54,1.44Z"/>
  <g>
    <path class="cls-1" d="M73.98,91.67c-.42-2-.84-4.01-1.25-6.02-.57-2.79-1.37-5.17-2.43-7.27-4.71-9.26-16.06-14.24-25.83-11.32-2.57.77-5.13,1.82-7.6,2.84-1.08.44-2.19.9-3.3,1.34.01.12.02.23.03.33.03.27.05.47.08.66.43,2.1.87,4.2,1.32,6.3l.12.56c.56,2.67,1.38,4.92,2.5,6.89,5.61,9.83,16.54,14.03,27.19,10.46,1.98-.66,3.94-1.53,5.83-2.36.9-.4,1.81-.8,2.71-1.18q.81-.34.62-1.22Z"/>
    <path class="cls-1" d="M116.98,101.96c-2.04-6.21-6.66-11.24-12.68-13.81-1.5-.64-3.05-1.26-4.55-1.85-.61-.24-1.23-.49-1.84-.73-.45-.18-.91-.36-1.39-.54l-.46-.18c-.52.79-1.04,1.58-1.55,2.36-1.18,1.78-2.4,3.62-3.52,5.47-3.1,5.1-4.01,11.42-2.49,17.33,1.51,5.89,5.17,10.76,10.29,13.71,2.4,1.38,5.05,2.47,7.6,3.52,1.11.46,2.26.93,3.39,1.43.56-.86,1.11-1.7,1.66-2.52,1.27-1.91,2.46-3.72,3.57-5.61,3.3-5.61,4.02-12.38,1.98-18.57Z"/>
    <path class="cls-1" d="M151.46,61.12c-.65-1.95-1.51-3.87-2.33-5.73-.41-.93-.83-1.87-1.22-2.81-.12-.3-.25-.42-.49-.42-.08,0-.18.01-.3.04-2.13.48-4.61,1.03-7.08,1.5-4.95.95-9.08,3.17-12.27,6.6-5.65,6.08-7.56,13.17-5.69,21.08.4,1.71,1.09,3.38,1.76,5.01.21.51.42,1.02.62,1.53.45,1.14.96,2.29,1.46,3.41.2.45.4.9.6,1.35h.04c.14-.03.25-.04.36-.07.75-.16,1.51-.32,2.26-.48,1.54-.33,3.14-.67,4.71-.97,5.76-1.1,10.37-3.79,13.71-7.98,5.27-6.62,6.58-14.05,3.88-22.08Z"/>
    <path class="cls-1" d="M108.12,43.56c-.71-2.23-1.67-4.43-2.59-6.56-.38-.87-.76-1.73-1.12-2.61-.3-.72-.4-.95-.78-.95-.18,0-.43.05-.8.13l-.07.02c-1.78.38-3.59.76-5.39,1.11-3.07.6-5.54,1.42-7.77,2.6-9.33,4.93-14.07,16.13-11.02,26.07.77,2.49,1.76,4.86,2.8,7.37.44,1.06.9,2.14,1.33,3.24.74-.15,1.45-.31,2.16-.46,1.7-.36,3.3-.7,4.92-1.02,3.07-.6,5.66-1.52,7.91-2.8,9.17-5.21,13.56-16.2,10.42-26.13Z"/>
    <path class="cls-1" d="M166.37,127.51c-.4-1.71-.79-3.59-1.24-5.92-.63-3.28-1.63-6.06-3.07-8.49-5.02-8.53-15.52-12.88-24.97-10.35-1.72.46-3.42,1.15-5.06,1.81-.4.16-.79.32-1.18.47-1.16.46-2.29.96-3.49,1.5-.47.21-.95.42-1.44.64l.08.46c.07.41.14.79.22,1.16.14.69.29,1.39.43,2.08.25,1.17.49,2.34.72,3.52,1.18,6.04,3.98,10.78,8.32,14.09,7.11,5.42,14.92,6.46,23.22,3.09,1.02-.42,2.03-.85,3.05-1.28,1.25-.53,2.54-1.09,3.82-1.59.63-.25.75-.49.59-1.17Z"/>
    <path class="cls-1" d="M84.56,131.84c-.45-1.74-1.15-3.46-1.82-5.12-.19-.47-.38-.95-.57-1.42-.44-1.12-.92-2.2-1.43-3.35-.2-.46-.41-.92-.61-1.39-.73.15-1.45.3-2.17.45-1.71.36-3.38.7-5.05,1.03-6.54,1.28-11.6,4.51-15.04,9.61-4.31,6.39-5.2,13.33-2.64,20.65.64,1.83,1.44,3.64,2.21,5.39.43.96.86,1.96,1.27,2.95.2.48.43.52.99.4,2.1-.46,4.16-.89,6.13-1.28,3.21-.63,5.92-1.61,8.29-3,8.53-4.99,12.92-15.47,10.45-24.92Z"/>
    <path class="cls-1" d="M143.33,146.3c-1.6-1.28-3.2-2.57-4.78-3.86-2.21-1.8-4.33-3.13-6.49-4.08-9.52-4.18-21.44-.83-27.15,7.62-1.5,2.22-2.81,4.66-4.08,7.01-.55,1.03-1.12,2.09-1.71,3.13.08.08.16.16.23.23.19.19.33.33.48.46,1.63,1.32,3.26,2.63,4.9,3.95l.56.45c2.12,1.71,4.18,2.93,6.3,3.74,10.57,4.05,21.69.37,27.66-9.15,1.11-1.77,2.08-3.67,3.01-5.52.45-.88.89-1.77,1.36-2.64q.41-.77-.29-1.33Z"/>
  </g>
</svg>