<?xml version="1.0" encoding="UTF-8"?>
<svg id="Layer_1" data-name="Layer 1" xmlns="http://www.w3.org/2000/svg" viewBox="0 0 200 200">
  <defs>
    <style>
      .cls-1 {
        fill: #40b2af;
      }

      .cls-2 {
        fill: #fff;
      }
    </style>
  </defs>
  <path class="cls-1" d="M99.8,195c-19.37,0-38.23-5.93-54.41-17.29-20.76-14.59-34.59-36.38-38.95-61.37-4.36-24.99,1.27-50.19,15.85-70.94C36.88,24.64,58.67,10.8,83.67,6.44c24.99-4.36,50.19,1.27,70.94,15.85,20.76,14.59,34.59,36.38,38.95,61.37,4.36,24.99-1.27,50.19-15.85,70.94-14.59,20.76-36.38,34.59-61.37,38.95-5.52.96-11.05,1.44-16.54,1.44Z"/>
  <path class="cls-2" d="M155.25,81.66c-1.4-2.42-3.29-4.99-5.54-7.6-1.21-1.4-3.44-1.16-4.34.45l-21.35,38.34c-.48.86-1.37,1.35-2.29,1.35-.43,0-.86-.11-1.27-.33-1.26-.7-1.72-2.29-1.02-3.56l22.82-40.99c.61-1.09.38-2.46-.56-3.29-2.64-2.33-5.48-4.57-8.42-6.62-.76-.53-1.52-1.04-2.27-1.54-1.43-.94-3.36-.29-3.95,1.31l-16.37,44.37c-.39,1.06-1.39,1.71-2.45,1.71-.3,0-.61-.05-.91-.16-1.36-.5-2.05-2.01-1.55-3.36l16.96-45.97c.48-1.3-.12-2.74-1.37-3.34-1.38-.65-2.75-1.25-4.12-1.79-6.06-2.39-11.86-3.6-17.25-3.6s-11.19,1.21-17.25,3.6c-1.37.54-2.74,1.14-4.12,1.79-1.25.59-1.85,2.04-1.37,3.34l16.96,45.97c.5,1.36-.19,2.86-1.55,3.36-.3.11-.61.16-.91.16-1.03,0-1.99-.61-2.41-1.61v.03c.4,1.06,1.4,1.71,2.46,1.71h0c-1.06,0-2.06-.65-2.45-1.71v-.03s-.04-.07-.06-.1l-4.39-11.9-11.29-30.53h0s11.28,30.5,11.28,30.5l-11.97-32.44c-.59-1.6-2.52-2.25-3.95-1.31-.76.5-1.52,1.01-2.27,1.54-2.94,2.05-5.78,4.29-8.42,6.62-.94.83-1.17,2.2-.56,3.29l22.82,40.99c.7,1.26.24,2.86-1.02,3.56-.4.22-.84.33-1.27.33-.92,0-1.81-.49-2.29-1.35l-2.55-4.57,2.61,4.7c.48.86,1.37,1.35,2.29,1.35h0c-.92,0-1.81-.49-2.29-1.35l-2.61-4.71-18.8-33.76c-.9-1.61-3.13-1.85-4.34-.45-2.26,2.61-4.15,5.18-5.54,7.6-2.64,4.58-3.24,8.18-1.78,10.71l.05.08,21.98,32.63c.67,1,.59,2.33-.2,3.24l-1.44,1.65-.06.07-.05.07c-3.03,4.06-3.51,8.89-1.32,13.27,1.38,2.75,3.7,5.08,6.71,6.75,3.08,1.71,6.74,2.61,10.58,2.61h17.05c.09,0,.19,0,.28.02,1.15.13,2.3.19,3.47.19s2.32-.07,3.47-.19c.09-.01.18-.02.28-.02h17.05c3.84,0,7.5-.9,10.58-2.61,3.01-1.67,5.33-4,6.71-6.75,2.19-4.37,1.71-9.21-1.32-13.27l-.05-.07-1.5-1.72c-.79-.91-.88-2.24-.2-3.24l21.98-32.63.05-.08c1.46-2.53.86-6.13-1.78-10.71ZM152.18,87.37c.09.27.17.52.22.74-.06-.22-.13-.47-.22-.74Z"/>
</svg>