<?xml version="1.0" encoding="UTF-8"?>
<svg id="Layer_1" data-name="Layer 1" xmlns="http://www.w3.org/2000/svg" viewBox="0 0 200 200">
  <defs>
    <style>
      .cls-1 {
        fill: #fff;
      }

      .cls-2 {
        fill: #347066;
      }
    </style>
  </defs>
  <path class="cls-2" d="M99.8,195c-19.37,0-38.23-5.93-54.41-17.29-20.76-14.59-34.59-36.38-38.95-61.37-4.36-24.99,1.27-50.18,15.85-70.94C36.88,24.64,58.67,10.8,83.67,6.44c24.99-4.36,50.19,1.27,70.94,15.85,20.76,14.59,34.59,36.38,38.95,61.37,4.36,24.99-1.27,50.19-15.85,70.94-14.59,20.76-36.38,34.59-61.37,38.95-5.52.96-11.05,1.44-16.54,1.44Z"/>
  <path class="cls-1" d="M161.43,70.49c-.79-4.61-.92-8.92-.38-13.19.31-2.44-.37-3.34-3.01-4.03l-.81-.21c-3.51-.91-7.15-1.85-10.5-3.3-4.98-2.16-9.29-3.63-14.13-3.76h-.11c-.93-.06-2.12-.01-3.22.06-.8.05-1.65.17-2.46.33l-.11.02c-6.19,1.12-11.48,3.81-15.7,8-1.86,1.84-3.55,3.97-4.88,6.16-3.28,5.38-7.79,8.75-13.78,10.31-5.75,1.5-10.64,4.45-14.53,8.78-1.35,1.51-2.65,3.29-3.85,5.3-2.99,5-7.26,8.23-12.7,9.61-5.83,1.47-10.55,4.12-14.46,8.1-5.81,5.91-8.75,13.19-8.73,21.61,0,.16,0,.32,0,.47,0,.61,0,1.22.19,2.03l.87,13.84c.28.93-.5,2.55-.3,3.47.32,1.48,1.2,2.3,2.68,2.51,4.27.59,8.65,2.01,13.78,4.46,6.65,3.19,14.22,3.81,21.3,1.75,7.1-2.06,13.12-6.65,16.96-12.91,1.76-2.87,3.8-5.15,6.22-6.98,2.44-1.84,5.2-3.16,8.43-4.02,7.39-1.98,13.28-6.43,17.5-13.23.93-1.49,1.85-2.94,2.95-4.21,2.62-3.03,6.19-5.1,10.92-6.32,7.13-1.84,12.88-5.87,17.07-11.98,4.62-6.73,6.23-14.36,4.8-22.69ZM77.8,133.57c-2.57,2.57-5.97,3.99-9.59,3.99,0,0-.02,0-.03,0-3.67,0-7.13-1.47-9.75-4.11-2.57-2.59-3.98-6.01-3.96-9.62.02-3.61,1.45-7.01,4.04-9.58,2.57-2.55,5.97-3.96,9.57-3.96.01,0,.03,0,.04,0,3.62.01,7.03,1.44,9.61,4.02,2.56,2.55,3.97,5.97,3.98,9.64,0,3.66-1.39,7.08-3.93,9.63ZM109.68,109.61c-2.66,2.68-6.18,4.02-9.69,4.02s-6.9-1.3-9.53-3.89c-2.62-2.58-4.07-6.04-4.09-9.72-.02-3.65,1.38-7.07,3.94-9.63,2.58-2.59,6.02-4.02,9.66-4.02h0c3.65,0,7.09,1.43,9.68,4.03,5.28,5.3,5.29,13.92.02,19.22ZM141.53,85.7c-2.59,2.59-6,4.01-9.61,4.01-.02,0-.03,0-.05,0-3.64-.01-7.08-1.47-9.68-4.11-5.22-5.29-5.24-13.87-.04-19.12,2.57-2.6,5.99-4.03,9.63-4.04h.03c3.66,0,7.1,1.44,9.71,4.05,2.58,2.58,4,6,4,9.61,0,3.62-1.41,7.02-3.99,9.6Z"/>
</svg>