<?xml version="1.0" encoding="UTF-8"?>
<svg id="Layer_1" data-name="Layer 1" xmlns="http://www.w3.org/2000/svg" viewBox="0 0 200 200">
  <defs>
    <style>
      .cls-1 {
        fill: #fff;
      }

      .cls-2 {
        fill: #754c24;
      }
    </style>
  </defs>
  <path class="cls-2" d="M99.8,195c-19.37,0-38.23-5.93-54.41-17.29-20.76-14.59-34.59-36.38-38.95-61.37-4.36-24.99,1.27-50.18,15.85-70.94C36.88,24.64,58.67,10.8,83.67,6.44c24.99-4.36,50.19,1.27,70.94,15.85,20.76,14.59,34.59,36.38,38.95,61.37,4.36,24.99-1.27,50.19-15.85,70.94-14.59,20.76-36.38,34.59-61.37,38.95-5.52.96-11.05,1.44-16.54,1.44Z"/>
  <path class="cls-1" d="M123.78,93.21c-20.31,0-39.67,6.16-55.95,17.59,6.08,24.4,24.8,46.49,42.59,46.52,1.26,3.6,4.43,5.86,7.49,5.16,3.05-.69,4.9-4.09,4.51-7.85,5.25-2.52,9.76-6.69,13.24-12.25,1.34-2.15,2.54-4.49,3.55-7.05,4.19-10.44,3.98-27.79,1.34-40.71-5.48-.94-11.09-1.43-16.77-1.43ZM123.78,86.21c6.09,0,12.09.52,17.99,1.54,1.86-4.35,2.34-8.81,1.39-12.94-3.31-14.4-22.17-22.16-44.09-18.88-.58-6.44-3.33-12.62-7.96-17.25-1.72-1.72-4.51-1.72-6.22-.01-1.73,1.72-1.72,4.5-.01,6.22,3.44,3.44,5.39,8.1,5.55,12.93-13.42,3.75-24.6,11.09-30.23,20.09-3.45,5.51-4.61,11.3-3.35,16.76.92,3.99,3.18,7.67,6.55,10.71,6.12-4.33,12.69-7.99,19.65-10.94,12.9-5.46,26.61-8.22,40.73-8.22Z"/>
</svg>