<?xml version="1.0" encoding="UTF-8"?>
<svg id="Layer_1" data-name="Layer 1" xmlns="http://www.w3.org/2000/svg" viewBox="0 0 200 200">
  <defs>
    <style>
      .cls-1 {
        fill: #009245;
      }

      .cls-2 {
        fill: #fff;
      }
    </style>
  </defs>
  <path class="cls-1" d="M99.8,195c-19.37,0-38.23-5.93-54.41-17.29-20.76-14.59-34.59-36.38-38.95-61.37-4.36-24.99,1.27-50.18,15.85-70.94C36.88,24.64,58.67,10.8,83.67,6.44c24.99-4.36,50.19,1.27,70.94,15.85,20.76,14.59,34.59,36.38,38.95,61.37,4.36,24.99-1.27,50.19-15.85,70.94-14.59,20.76-36.38,34.59-61.37,38.95-5.52.96-11.05,1.44-16.54,1.44Z"/>
  <g>
    <path class="cls-2" d="M84.34,143.5h-24.84l-20.92-86.63h22.15l11.75,63.38h.24l11.62-63.38h21.29l-21.29,86.63Z"/>
    <path class="cls-2" d="M151.39,143.5c-3.92,1.3-8.52,1.96-13.83,1.96s-10.34-1.1-14.62-3.3c-4.28-2.2-7.91-5.28-10.89-9.24-2.98-3.96-5.26-8.71-6.85-14.25-1.59-5.55-2.39-11.7-2.39-18.48s.8-12.95,2.39-18.54c1.59-5.59,3.85-10.4,6.79-14.44s6.46-7.16,10.58-9.36c4.12-2.2,8.71-3.3,13.77-3.3,5.87,0,10.79,1,14.74,3,3.96,2,7.08,4.51,9.36,7.52l-10.65,14.32c-2.95-4.08-6.97-6.12-12.04-6.12-2.7,0-5.04.72-7.01,2.14-1.97,1.43-3.61,3.37-4.92,5.81-1.31,2.45-2.27,5.3-2.89,8.57-.62,3.26-.92,6.73-.92,10.4s.29,7.14.86,10.4c.57,3.26,1.5,6.12,2.77,8.57s2.87,4.41,4.8,5.87,4.24,2.2,6.95,2.2c2.95,0,5.25-.61,6.89-1.84v-16.15h-9.3v-17.01h26.43v46.13c-2.77,2.12-6.12,3.84-10.03,5.14Z"/>
  </g>
</svg>